<mxfile host="app.diagrams.net" agent="Mozilla/5.0 (X11; Ubuntu; Linux x86_64; rv:139.0) Gecko/20100101 Firefox/139.0" version="27.1.6">
  <diagram name="Page-1" id="POaLV1qd_8ivgcaJ0k6t">
    <mxGraphModel dx="1356" dy="721" grid="1" gridSize="10" guides="1" tooltips="1" connect="1" arrows="1" fold="1" page="1" pageScale="1" pageWidth="850" pageHeight="1100" math="0" shadow="0">
      <root>
        <mxCell id="0" />
        <mxCell id="1" parent="0" />
        <mxCell id="8z2NHTdnz_yu78FJvaMC-28" value="" style="rounded=1;whiteSpace=wrap;html=1;strokeColor=none;strokeWidth=3;align=center;verticalAlign=middle;fontFamily=Helvetica;fontSize=12;fontColor=default;fillColor=#142037;" parent="1" vertex="1">
          <mxGeometry x="150" y="40" width="1031.25" height="180" as="geometry" />
        </mxCell>
        <mxCell id="8z2NHTdnz_yu78FJvaMC-2" value="" style="rounded=1;whiteSpace=wrap;html=1;strokeColor=#22D234;fillColor=#A2D2A4;strokeWidth=3;" parent="1" vertex="1">
          <mxGeometry x="180" y="80" width="987.5" height="80" as="geometry" />
        </mxCell>
        <mxCell id="8z2NHTdnz_yu78FJvaMC-19" style="edgeStyle=orthogonalEdgeStyle;rounded=0;orthogonalLoop=1;jettySize=auto;html=1;exitX=0.5;exitY=1;exitDx=0;exitDy=0;" parent="1" edge="1">
          <mxGeometry relative="1" as="geometry">
            <mxPoint x="250" y="80" as="sourcePoint" />
            <mxPoint x="250" y="80" as="targetPoint" />
          </mxGeometry>
        </mxCell>
        <mxCell id="8z2NHTdnz_yu78FJvaMC-37" value="&lt;span style=&quot;color: rgb(179, 179, 179);&quot;&gt;&lt;font style=&quot;font-size: 23px;&quot;&gt;Document&lt;/font&gt;&lt;/span&gt;" style="text;html=1;align=center;verticalAlign=middle;resizable=0;points=[];autosize=1;strokeColor=none;fillColor=none;fontFamily=Helvetica;fontSize=12;fontColor=default;" parent="1" vertex="1">
          <mxGeometry x="175" y="160" width="130" height="40" as="geometry" />
        </mxCell>
        <mxCell id="lDjh93la92TDXTI0dgt4-17" value="" style="rounded=1;whiteSpace=wrap;html=1;strokeColor=none;strokeWidth=3;align=center;verticalAlign=middle;fontFamily=Helvetica;fontSize=12;fontColor=default;fillColor=#22D234;" vertex="1" parent="1">
          <mxGeometry x="190" y="90" width="120" height="30" as="geometry" />
        </mxCell>
        <mxCell id="lDjh93la92TDXTI0dgt4-20" value="" style="rounded=1;whiteSpace=wrap;html=1;strokeColor=none;strokeWidth=3;align=center;verticalAlign=middle;fontFamily=Helvetica;fontSize=12;fontColor=default;fillColor=#22D234;" vertex="1" parent="1">
          <mxGeometry x="440" y="90" width="70" height="30" as="geometry" />
        </mxCell>
        <mxCell id="lDjh93la92TDXTI0dgt4-21" value="" style="rounded=1;whiteSpace=wrap;html=1;strokeColor=none;strokeWidth=3;align=center;verticalAlign=middle;fontFamily=Helvetica;fontSize=12;fontColor=default;fillColor=#22D234;" vertex="1" parent="1">
          <mxGeometry x="570" y="90" width="100" height="30" as="geometry" />
        </mxCell>
        <mxCell id="lDjh93la92TDXTI0dgt4-22" value="" style="rounded=1;whiteSpace=wrap;html=1;strokeColor=none;strokeWidth=3;align=center;verticalAlign=middle;fontFamily=Helvetica;fontSize=12;fontColor=default;fillColor=#22D234;" vertex="1" parent="1">
          <mxGeometry x="800" y="90" width="90" height="30" as="geometry" />
        </mxCell>
        <mxCell id="lDjh93la92TDXTI0dgt4-25" value="" style="rounded=1;whiteSpace=wrap;html=1;strokeColor=none;strokeWidth=3;align=center;verticalAlign=middle;fontFamily=Helvetica;fontSize=12;fontColor=default;fillColor=#22D234;" vertex="1" parent="1">
          <mxGeometry x="1010" y="90" width="150" height="30" as="geometry" />
        </mxCell>
        <mxCell id="lDjh93la92TDXTI0dgt4-24" value="" style="rounded=1;whiteSpace=wrap;html=1;strokeColor=none;strokeWidth=3;align=center;verticalAlign=middle;fontFamily=Helvetica;fontSize=12;fontColor=default;fillColor=#22D234;" vertex="1" parent="1">
          <mxGeometry x="965" y="120" width="105" height="30" as="geometry" />
        </mxCell>
        <mxCell id="lDjh93la92TDXTI0dgt4-27" value="" style="rounded=1;whiteSpace=wrap;html=1;strokeColor=none;strokeWidth=3;align=center;verticalAlign=middle;fontFamily=Helvetica;fontSize=12;fontColor=default;fillColor=#22D234;" vertex="1" parent="1">
          <mxGeometry x="420" y="120" width="120" height="30" as="geometry" />
        </mxCell>
        <mxCell id="lDjh93la92TDXTI0dgt4-26" value="" style="rounded=1;whiteSpace=wrap;html=1;strokeColor=none;strokeWidth=3;align=center;verticalAlign=middle;fontFamily=Helvetica;fontSize=12;fontColor=default;fillColor=#22D234;" vertex="1" parent="1">
          <mxGeometry x="810" y="120" width="90" height="30" as="geometry" />
        </mxCell>
        <mxCell id="lDjh93la92TDXTI0dgt4-18" value="&lt;font style=&quot;font-size: 23px;&quot;&gt;Elon Musk has shared a photo of the spacesuit designed by SpaceX. This is the second image shared of the new design and the first to feature the spacesuitâ€™s full-body look.&lt;/font&gt;" style="text;html=1;align=center;verticalAlign=middle;whiteSpace=wrap;rounded=0;" vertex="1" parent="1">
          <mxGeometry x="168.75" y="85" width="1010" height="70" as="geometry" />
        </mxCell>
      </root>
    </mxGraphModel>
  </diagram>
</mxfile>
